# xmcd
#
# Track frame offsets:
#	150
#	15343
#	28511
#	43268
#	53873
#	63940
#	78288
#	95132
#	111006
#	135624
#	146501
#	164498
#	175284
#	190469
#	199560
#	215802
#	223240
#	233403
#
# Disc length: 3226 seconds
# Revision: 1
# Processed by: cddbd v1.5.2PL0 Copyright (c) Steve Scherf et al.
# Submitted via: dBpowerAMP V12.0
#
DISCID=040c9812
DTITLE=Hank Williams - Hank Williams: The Unreleased Recordings [Time-Life 2008], Disc 1 of 3
DYEAR=1951
DGENRE=Country
TTITLE0=Blue Eyes Crying in the Rain [Rose 1947]
TTITLE1=Dust on the Bible [Bailes 1945]
TTITLE2=I'm So Lonesome I Could Cry [Williams 1949]
TTITLE3=I Heard My Savior Calling Me
TTITLE4=Precious Lord, Take My Hand [Dorsey 1937]
TTITLE5=Hey, Good Lookin' [Williams 1951]
TTITLE6=On Top of Old Smoky
TTITLE7=I Can't Tell My Heart That
TTITLE8=I Dreamed That the Great Judgement Morning [Shadduck 1894, Pickett]
TTITLE9=Next Sunday Darling Is My Birthday
TTITLE10=At the First Fall of Snow [Rose 1948]
TTITLE11=Dear John [Ritter and Gass 1951]
TTITLE12=The Blind Child's Prayer
TTITLE13=I'll Have a New Life [Presley 1940]
TTITLE14=On the Banks of the Old Pontchartrain [Williams and Vincent 1947]
TTITLE15=Low and Lonely
TTITLE16=Drifting Too Far From the Shore [Moody 1923]
TTITLE17=(I'm Gonna) Sing, Sing, Sing [Williams 1950]
EXTD=
EXTT0=
EXTT1=
EXTT2=
EXTT3=
EXTT4=
EXTT5=
EXTT6=
EXTT7=
EXTT8=
EXTT9=
EXTT10=
EXTT11=
EXTT12=
EXTT13=
EXTT14=
EXTT15=
EXTT16=
EXTT17=
PLAYORDER=
